<svg xmlns="http://www.w3.org/2000/svg">
  <symbol id="Verified" viewBox="0 0 512 512" fill="currentColor">
    <path
      fill="currentColor"
      d="M256 0c36.8 0 68.8 20.7 84.9 51.1C373.8 41 411 49 437 75s34 63.3 23.9 96.1C491.3 187.2 512 219.2 512 256s-20.7 68.8-51.1 84.9C471 373.8 463 411 437 437s-63.3 34-96.1 23.9C324.8 491.3 292.8 512 256 512s-68.8-20.7-84.9-51.1C138.2 471 101 463 75 437s-34-63.3-23.9-96.1C20.7 324.8 0 292.8 0 256s20.7-68.8 51.1-84.9C41 138.2 49 101 75 75s63.3-34 96.1-23.9C187.2 20.7 219.2 0 256 0zM369 209c9.4-9.4 9.4-24.6 0-33.9s-24.6-9.4-33.9 0l-111 111-47-47c-9.4-9.4-24.6-9.4-33.9 0s-9.4 24.6 0 33.9l64 64c9.4 9.4 24.6 9.4 33.9 0L369 209z"
    />
  </symbol>
  <symbol id="Crown" viewBox="0 0 24 24" fill="currentColor">
    <path
      d="M12.7292 6.64286C13.125 6.39286 13.3889 5.93929 13.3889 5.42857C13.3889 4.63929 12.7674 4 12 4C11.2326 4 10.6111 4.63929 10.6111 5.42857C10.6111 5.94286 10.875 6.39286 11.2708 6.64286L9.28125 10.7357C8.96528 11.3857 8.14583 11.5714 7.59375 11.1179L4.5 8.57143C4.67361 8.33214 4.77778 8.03571 4.77778 7.71429C4.77778 6.925 4.15625 6.28571 3.38889 6.28571C2.62153 6.28571 2 6.925 2 7.71429C2 8.50357 2.62153 9.14286 3.38889 9.14286C3.39583 9.14286 3.40625 9.14286 3.41319 9.14286L5 18.1214C5.19097 19.2071 6.11111 20 7.1875 20H16.8125C17.8854 20 18.8056 19.2107 19 18.1214L20.5868 9.14286C20.5938 9.14286 20.6042 9.14286 20.6111 9.14286C21.3785 9.14286 22 8.50357 22 7.71429C22 6.925 21.3785 6.28571 20.6111 6.28571C19.8438 6.28571 19.2222 6.925 19.2222 7.71429C19.2222 8.03571 19.3264 8.33214 19.5 8.57143L16.4063 11.1179C15.8542 11.5714 15.0347 11.3857 14.7188 10.7357L12.7292 6.64286Z"
    />
  </symbol>
</svg>